<svg width="800" height="600" xmlns="http://www.w3.org/2000/svg">
  <rect width="800" height="600" fill="#e8f5e9"/>
  <path d="M0,450 C100,400 200,500 300,450 C400,400 500,500 600,450 C700,400 800,450 800,450 L800,600 L0,600 Z" fill="#81c784"/>
  <circle cx="600" cy="150" r="60" fill="#ffb74d"/>
  
  <!-- Cycliste 1 -->
  <circle cx="200" cy="350" r="25" fill="#90caf9"/>
  <line x1="200" y1="375" x2="200" y2="425" stroke="#424242" stroke-width="5"/>
  <line x1="200" y1="390" x2="170" y2="425" stroke="#424242" stroke-width="5"/>
  <line x1="200" y1="390" x2="230" y2="425" stroke="#424242" stroke-width="5"/>
  <circle cx="170" cy="320" r="15" fill="#f5f5f5" stroke="#424242" stroke-width="3"/>
  <circle cx="230" cy="320" r="15" fill="#f5f5f5" stroke="#424242" stroke-width="3"/>
  <line x1="170" y1="320" x2="200" y2="350" stroke="#424242" stroke-width="4"/>
  <line x1="230" y1="320" x2="200" y2="350" stroke="#424242" stroke-width="4"/>
  
  <!-- Cycliste 2 -->
  <circle cx="350" cy="370" r="25" fill="#ce93d8"/>
  <line x1="350" y1="395" x2="350" y2="445" stroke="#424242" stroke-width="5"/>
  <line x1="350" y1="410" x2="320" y2="445" stroke="#424242" stroke-width="5"/>
  <line x1="350" y1="410" x2="380" y2="445" stroke="#424242" stroke-width="5"/>
  <circle cx="320" cy="340" r="15" fill="#f5f5f5" stroke="#424242" stroke-width="3"/>
  <circle cx="380" cy="340" r="15" fill="#f5f5f5" stroke="#424242" stroke-width="3"/>
  <line x1="320" y1="340" x2="350" y2="370" stroke="#424242" stroke-width="4"/>
  <line x1="380" y1="340" x2="350" y2="370" stroke="#424242" stroke-width="4"/>
  
  <!-- Cycliste 3 -->
  <circle cx="500" cy="360" r="25" fill="#ffcc80"/>
  <line x1="500" y1="385" x2="500" y2="435" stroke="#424242" stroke-width="5"/>
  <line x1="500" y1="400" x2="470" y2="435" stroke="#424242" stroke-width="5"/>
  <line x1="500" y1="400" x2="530" y2="435" stroke="#424242" stroke-width="5"/>
  <circle cx="470" cy="330" r="15" fill="#f5f5f5" stroke="#424242" stroke-width="3"/>
  <circle cx="530" cy="330" r="15" fill="#f5f5f5" stroke="#424242" stroke-width="3"/>
  <line x1="470" y1="330" x2="500" y2="360" stroke="#424242" stroke-width="4"/>
  <line x1="530" y1="330" x2="500" y2="360" stroke="#424242" stroke-width="4"/>
  
  <text x="400" y="100" font-family="Arial" font-size="36" text-anchor="middle" fill="#2e7d32">Groupe Cycliste</text>
  <text x="400" y="150" font-family="Arial" font-size="24" text-anchor="middle" fill="#424242">Rejoignez la communauté!</text>
</svg>
