<svg width="800" height="600" xmlns="http://www.w3.org/2000/svg">
  <rect width="800" height="600" fill="#f0f8ff"/>
  <rect x="50" y="50" width="700" height="500" rx="20" ry="20" fill="#ffffff" stroke="#2196f3" stroke-width="5"/>
  <text x="400" y="120" font-family="Arial" font-size="36" text-anchor="middle" fill="#2196f3">Social Post Template</text>
  <rect x="100" y="150" width="600" height="300" rx="10" ry="10" fill="#f5f5f5"/>
  <circle cx="250" cy="300" r="100" fill="#2196f3" opacity="0.7"/>
  <rect x="400" y="200" width="200" height="30" rx="5" ry="5" fill="#e0e0e0"/>
  <rect x="400" y="250" width="250" height="30" rx="5" ry="5" fill="#e0e0e0"/>
  <rect x="400" y="300" width="150" height="30" rx="5" ry="5" fill="#e0e0e0"/>
  <rect x="400" y="350" width="200" height="30" rx="5" ry="5" fill="#e0e0e0"/>
  <rect x="150" y="480" width="150" height="40" rx="20" ry="20" fill="#4caf50"/>
  <text x="225" y="505" font-family="Arial" font-size="18" text-anchor="middle" fill="#ffffff">J'aime</text>
  <rect x="325" y="480" width="150" height="40" rx="20" ry="20" fill="#ff9800"/>
  <text x="400" y="505" font-family="Arial" font-size="18" text-anchor="middle" fill="#ffffff">Commenter</text>
  <rect x="500" y="480" width="150" height="40" rx="20" ry="20" fill="#f44336"/>
  <text x="575" y="505" font-family="Arial" font-size="18" text-anchor="middle" fill="#ffffff">Partager</text>
</svg>
